<?xml version="1.0" encoding="utf-8"?><svg xmlns="http://www.w3.org/2000/svg" xmlns:xlink="http://www.w3.org/1999/xlink"><symbol viewBox="0 0 511.626 511.627" id="comment" xmlns="http://www.w3.org/2000/svg"><path d="M477.364 127.481c-22.839-28.072-53.864-50.248-93.072-66.522-39.208-16.274-82.036-24.41-128.479-24.41-46.442 0-89.269 8.136-128.478 24.41s-70.233 38.446-93.074 66.522C11.419 155.555 0 186.15 0 219.269c0 28.549 8.61 55.299 25.837 80.232 17.227 24.934 40.778 45.874 70.664 62.813-2.096 7.611-4.57 14.842-7.426 21.7-2.855 6.851-5.424 12.467-7.708 16.847-2.286 4.374-5.376 9.23-9.281 14.555-3.899 5.332-6.849 9.093-8.848 11.283a4550.42 4550.42 0 00-9.851 10.848c-4.565 5.041-7.517 8.33-8.848 9.853-.193.097-.953.948-2.285 2.574-1.331 1.615-1.999 2.419-1.999 2.419l-1.713 2.57c-.953 1.42-1.381 2.327-1.287 2.703.096.384-.094 1.335-.57 2.854-.477 1.526-.428 2.669.142 3.429v.287c.762 3.234 2.283 5.853 4.567 7.851 2.284 1.992 4.858 2.991 7.71 2.991h1.429c12.375-1.526 23.223-3.613 32.548-6.279 49.87-12.751 93.649-35.782 131.334-69.094 14.274 1.523 28.074 2.283 41.396 2.283 46.442 0 89.271-8.135 128.479-24.414 39.208-16.276 70.233-38.444 93.072-66.517 22.843-28.072 34.263-58.67 34.263-91.789.001-33.114-11.418-63.713-34.261-91.787zm-32.12 164.594c-19.896 22.456-46.733 40.303-80.517 53.529-33.784 13.223-70.093 19.842-108.921 19.842-11.609 0-23.98-.76-37.113-2.286l-16.274-1.708-12.277 10.852c-23.408 20.558-49.582 36.829-78.513 48.821 8.754-15.414 15.416-31.785 19.986-49.102l7.708-27.412-24.838-14.27c-24.744-14.093-43.918-30.793-57.53-50.114-13.61-19.315-20.412-39.638-20.412-60.954 0-26.077 9.945-50.343 29.834-72.803 19.895-22.458 46.729-40.303 80.515-53.531 33.786-13.229 70.089-19.849 108.92-19.849 38.828 0 75.13 6.617 108.914 19.845 33.783 13.229 60.62 31.073 80.517 53.531 19.89 22.46 29.834 46.727 29.834 72.802s-9.944 50.347-29.833 72.807z"/></symbol><symbol viewBox="0 0 490.667 490.667" id="compass" xmlns="http://www.w3.org/2000/svg"><path d="M245.333 0C110.059 0 0 110.059 0 245.333s110.059 245.333 245.333 245.333 245.333-110.059 245.333-245.333S380.608 0 245.333 0zm0 448c-111.744 0-202.667-90.923-202.667-202.667S133.589 42.667 245.333 42.667 448 133.589 448 245.333 357.077 448 245.333 448z"/><path d="M359.552 131.136c-3.093-3.115-7.765-4.011-11.755-2.261l-149.333 64c-2.517 1.067-4.523 3.093-5.611 5.611l-64 149.333a10.653 10.653 0 002.261 11.755 10.82 10.82 0 007.552 3.093c1.408 0 2.837-.299 4.203-.853l149.333-64a10.761 10.761 0 005.611-5.611l64-149.333a10.687 10.687 0 00-2.261-11.734zM245.333 266.667c-11.755 0-21.333-9.579-21.333-21.333 0-11.755 9.579-21.333 21.333-21.333 11.755 0 21.333 9.579 21.333 21.333.001 11.754-9.578 21.333-21.333 21.333z"/></symbol><symbol viewBox="0 -10 511.987 511" id="star" xmlns="http://www.w3.org/2000/svg"><path d="M114.594 491.14c-5.61 0-11.18-1.75-15.934-5.187a27.223 27.223 0 01-10.582-28.094l32.938-145.09L9.312 214.81a27.188 27.188 0 01-7.976-28.907 27.208 27.208 0 0123.402-18.71l147.797-13.419L230.97 17.027C235.277 6.98 245.089.492 255.992.492s20.715 6.488 25.024 16.512l58.433 136.77 147.774 13.417c10.882.98 20.054 8.344 23.425 18.711 3.372 10.368.254 21.739-7.957 28.907L390.988 312.75l32.938 145.086c2.414 10.668-1.727 21.7-10.578 28.098-8.832 6.398-20.61 6.89-29.91 1.3l-127.446-76.16-127.445 76.203c-4.309 2.559-9.11 3.864-13.953 3.864zm141.398-112.874c4.844 0 9.64 1.3 13.953 3.859l120.278 71.938-31.086-136.942a27.21 27.21 0 018.62-26.516l105.473-92.5-139.543-12.671a27.18 27.18 0 01-22.613-16.493L255.992 39.895 200.844 168.96c-3.883 9.195-12.524 15.512-22.547 16.43L38.734 198.062l105.47 92.5c7.554 6.614 10.858 16.77 8.62 26.54l-31.062 136.937 120.277-71.914c4.309-2.559 9.11-3.86 13.953-3.86zm-84.586-221.848s0 .023-.023.043zm169.13-.063l.023.043c0-.023 0-.023-.024-.043zm0 0"/></symbol></svg>